<?xml version="1.0"?>
<svg xmlns="http://www.w3.org/2000/svg" height="512px" viewBox="0 0 64 64" width="512px" class=""><g><path d="m59.9 54.553-5.9-11.789v-25.764a2.978 2.978 0 0 0 -.467-1.58l5.049-3.607a1 1 0 0 0 0-1.626l-7-5a1 1 0 0 0 -.582-.187h-9a3 3 0 0 0 -3-3h-12a3 3 0 0 0 -3 3h-13a6 6 0 0 0 -.988 11.911c0 .03-.012.059-.012.089v25.764l-5.895 11.789a1 1 0 0 0 -.105.447v4a3 3 0 0 0 3 3h50a3 3 0 0 0 3-3v-4a1 1 0 0 0 -.1-.447zm-30.9 1.447h6v1h-6zm-22.382-2 5-10h40.764l5 10zm45.382-37v25h-40v-25h10v2a1 1 0 0 0 .105.447l1.895 3.789v13.764a1 1 0 0 0 1 1h16a1 1 0 0 0 1-1v-20h9a1 1 0 0 0 .581-.186l.32-.229a.982.982 0 0 1 .099.415zm-36-2v-8h2v8zm9-6a.978.978 0 0 1 .713.306.965.965 0 0 1 .287.694v4a1 1 0 0 0 1 1 4.919 4.919 0 0 1 2.765.838 4.8 4.8 0 0 1 .954.833 4.95 4.95 0 0 1 1.281 3.329h2a6.958 6.958 0 0 0 -.681-3h6.681v9h-14v-3a1 1 0 0 0 -.105-.447l-1.895-3.789v-8.764a1 1 0 0 1 1-1zm4.162 4.351c-.077-.025-.153-.052-.231-.074.024-.021.049-.039.072-.06.052.047.105.09.159.134zm-3.162 14.649h14v8h-14zm29-16.086v-1.828l1.28.914zm-2-3.257v4.686l-2.32 1.657h-.406a1.979 1.979 0 0 1 -.274-1 2 2 0 0 1 2-2v-2a2 2 0 0 1 -2-2 1.979 1.979 0 0 1 .274-1h.406zm-4.857-1.657a3.992 3.992 0 0 0 -.143 1 3.959 3.959 0 0 0 .556 2h-4.556v2h4.556a3.771 3.771 0 0 0 -.413 3h-16.275a6.515 6.515 0 0 0 -1-.829c-.119-.081-.246-.148-.37-.22a3.071 3.071 0 0 0 .502.049 2.977 2.977 0 0 0 2-.783 2.936 2.936 0 0 0 2 .783 2.977 2.977 0 0 0 2-.783 2.936 2.936 0 0 0 2 .783 3 3 0 0 0 3-3v-4zm-8.143-2v6a1 1 0 0 1 -1 1 .978.978 0 0 1 -.713-.306.965.965 0 0 1 -.287-.694v-7h1a1 1 0 0 1 1 1zm-4 6a1 1 0 0 1 -1 1 .978.978 0 0 1 -.713-.306.965.965 0 0 1 -.287-.694v-7h2zm-4 0a1 1 0 0 1 -1 1 .978.978 0 0 1 -.713-.306.965.965 0 0 1 -.287-.694v-7h2zm-5-7h1v6a2.994 2.994 0 0 0 -2-2.818v-2.182a1 1 0 0 1 1-1zm-3 3.184a3 3 0 0 0 -2 2.816v5h-2v-8h4zm-17 3.816a3.984 3.984 0 0 1 4-4h3v8h-3a4 4 0 0 1 -4-4zm50 49h-50a1 1 0 0 1 -1-1v-3h21v1a2 2 0 0 0 2 2h6a2 2 0 0 0 2-2v-1h21v3a1 1 0 0 1 -1 1z" data-original="#000000" class="active-path" data-old_color="#000000" fill="#0D9EDF"/><path d="m12 50h2v2h-2z" data-original="#000000" class="active-path" data-old_color="#000000" fill="#0D9EDF"/><path d="m16 50h32v2h-32z" data-original="#000000" class="active-path" data-old_color="#000000" fill="#0D9EDF"/><path d="m50 50h2v2h-2z" data-original="#000000" class="active-path" data-old_color="#000000" fill="#0D9EDF"/><path d="m13 46h2v2h-2z" data-original="#000000" class="active-path" data-old_color="#000000" fill="#0D9EDF"/><path d="m17 46h4v2h-4z" data-original="#000000" class="active-path" data-old_color="#000000" fill="#0D9EDF"/><path d="m23 46h2v2h-2z" data-original="#000000" class="active-path" data-old_color="#000000" fill="#0D9EDF"/><path d="m27 46h2v2h-2z" data-original="#000000" class="active-path" data-old_color="#000000" fill="#0D9EDF"/><path d="m31 46h2v2h-2z" data-original="#000000" class="active-path" data-old_color="#000000" fill="#0D9EDF"/><path d="m35 46h2v2h-2z" data-original="#000000" class="active-path" data-old_color="#000000" fill="#0D9EDF"/><path d="m39 46h2v2h-2z" data-original="#000000" class="active-path" data-old_color="#000000" fill="#0D9EDF"/><path d="m45 46h2v2h-2z" data-original="#000000" class="active-path" data-old_color="#000000" fill="#0D9EDF"/><path d="m49 46h2v2h-2z" data-original="#000000" class="active-path" data-old_color="#000000" fill="#0D9EDF"/><path d="m47 34a3 3 0 1 0 3 3 3 3 0 0 0 -3-3zm0 4a1 1 0 1 1 1-1 1 1 0 0 1 -1 1z" data-original="#000000" class="active-path" data-old_color="#000000" fill="#0D9EDF"/><path d="m46 26h2v6h-2z" data-original="#000000" class="active-path" data-old_color="#000000" fill="#0D9EDF"/><path d="m46 22h2v2h-2z" data-original="#000000" class="active-path" data-old_color="#000000" fill="#0D9EDF"/><path d="m17 22a3 3 0 1 0 3 3 3 3 0 0 0 -3-3zm0 4a1 1 0 1 1 1-1 1 1 0 0 1 -1 1z" data-original="#000000" class="active-path" data-old_color="#000000" fill="#0D9EDF"/><path d="m16 30h2v6h-2z" data-original="#000000" class="active-path" data-old_color="#000000" fill="#0D9EDF"/><path d="m16 38h2v2h-2z" data-original="#000000" class="active-path" data-old_color="#000000" fill="#0D9EDF"/><path d="m28 30h2v2h-2z" data-original="#000000" class="active-path" data-old_color="#000000" fill="#0D9EDF"/></g> </svg>
